<?xml version="1.0" standalone="yes"?>
<svg width="200" height="50">
<path style="fill:#ffffff; stroke:none;" d="M0 0L0 50L200 50L200 0L0 0z"/>
<path style="fill:#959ee6; stroke:none;" d="M5 8L6 9L5 8z"/>
<path style="fill:#7578fd; stroke:none;" d="M6.66667 8.33333C6.22222 8.77778 7.27778 8.72222 7.33333 8.66667C7.77778 8.22222 6.72223 8.27777 6.66667 8.33333z"/>
<path style="fill:#4852f3; stroke:none;" d="M14.6667 8.33333C14.2222 8.77777 15.2778 8.72223 15.3333 8.66667C15.7778 8.22222 14.7222 8.27777 14.6667 8.33333z"/>
<path style="fill:#a8b1f4; stroke:none;" d="M22 8L23 9L22 8z"/>
<path style="fill:#6450ff; stroke:none;" d="M23 8L24 9L23 8z"/>
<path style="fill:#958af5; stroke:none;" d="M24 8L25 9L24 8z"/>
<path style="fill:#7265f1; stroke:none;" d="M31.6667 8.33333C31.2222 8.77777 32.2778 8.72223 32.3333 8.66667C32.7778 8.22221 31.7222 8.27779 31.6667 8.33333z"/>
<path style="fill:#8679f5; stroke:none;" d="M39 8L40 9L39 8z"/>
<path style="fill:#4345ff; stroke:none;" d="M40 8L41 9L40 8z"/>
<path style="fill:#9ba1ff; stroke:none;" d="M41 8L42 9L41 8z"/>
<path style="fill:#5748ff; stroke:none;" d="M128.667 8.33333C128.222 8.77781 129.278 8.72221 129.333 8.66667C129.778 8.22223 128.722 8.27777 128.667 8.33333z"/>
<path style="fill:#8b8cf9; stroke:none;" d="M4 9L5 10L4 9z"/>
<path style="fill:#0000f9; stroke:none;" d="M4 10L4 12C6.20067 12.4806 6.79933 12.4806 9 12L9 10C6.79934 9.51943 6.20065 9.51943 4 10z"/>
<path style="fill:#5e45fb; stroke:none;" d="M8 9L9 10L8 9z"/>
<path style="fill:#0000ff; stroke:none;" d="M13 9L13 13L17 13L17 9L13 9z"/>
<path style="fill:#8f94ff; stroke:none;" d="M21 9L22 10L21 9z"/>
<path style="fill:#0000fa; stroke:none;" d="M21 10L21 12C23.2007 12.4806 23.7993 12.4806 26 12L26 10C23.7993 9.51942 23.2007 9.51942 21 10z"/>
<path style="fill:#4c51de; stroke:none;" d="M25 9L26 10L25 9z"/>
<path style="fill:#0000fe; stroke:none;" d="M30 9L30 13L34 13L34 9L30 9z"/>
<path style="fill:#4245ed; stroke:none;" d="M38 9L39 10L38 9z"/>
<path style="fill:#0000f9; stroke:none;" d="M38 10L38 12C40.2007 12.4806 40.7993 12.4806 43 12L43 10C40.7993 9.51942 40.2007 9.51943 38 10z"/>
<path style="fill:#8a8aea; stroke:none;" d="M42 9L43 10L42 9z"/>
<path style="fill:#a6a1f8; stroke:none;" d="M50 9C56.2023 11.6026 65.2977 10 72 10C65.7977 7.39739 56.7023 9 50 9z"/>
<path style="fill:#98a0f7; stroke:none;" d="M116 9C117.506 9.68304 118.315 9.82589 120 10C118.494 9.31697 117.685 9.17411 116 9z"/>
<path style="fill:#514cff; stroke:none;" d="M127 9L128 10L127 9z"/>
<path style="fill:#0000ff; stroke:none;" d="M124 13C127.714 12.6175 130.453 12.7803 134 14C131.421 8.90235 127.675 8.85431 124 13z"/>
<path style="fill:#9998f8; stroke:none;" d="M173 9C174.769 9.77894 176.036 9.91241 178 10C176.231 9.22107 174.964 9.08759 173 9z"/>
<path style="fill:#8f92ff; stroke:none;" d="M12.3333 10.6667C12.2778 10.7222 12.2222 11.7778 12.6667 11.3333C12.7222 11.2778 12.7778 10.2222 12.3333 10.6667z"/>
<path style="fill:#8f98f0; stroke:none;" d="M17.3333 10.6667C17.2778 10.7222 17.2222 11.7778 17.6667 11.3333C17.7222 11.2778 17.7778 10.2222 17.3333 10.6667z"/>
<path style="fill:#7979f4; stroke:none;" d="M29.3333 10.6667C29.2778 10.7222 29.2222 11.7778 29.6667 11.3333C29.7222 11.2778 29.7778 10.2222 29.3333 10.6667z"/>
<path style="fill:#a2a2ff; stroke:none;" d="M34.3333 10.6667C34.2778 10.7222 34.2222 11.7778 34.6667 11.3333C34.7222 11.2778 34.7778 10.2222 34.3333 10.6667z"/>
<path style="fill:#827bff; stroke:none;" d="M50 10L50 15C50.8299 12.9695 50.8299 12.0305 50 10z"/>
<path style="fill:#0000fa; stroke:none;" d="M51 10L51 15C61.2283 14.0359 59 23.3732 59 31L64 31C62.5739 23.3182 60.9396 14.3276 71 14L72 10L51 10z"/>
<path style="fill:#8d8dff; stroke:none;" d="M115 10L115 16C115.951 13.7147 115.951 12.2853 115 10z"/>
<path style="fill:#0000fc; stroke:none;" d="M116 10L116 18C114.041 17.1701 112.162 16.2855 109.996 16.1736C95.9913 15.4497 105.414 38.8259 114 29L116 29C117.314 30.6179 117.877 30.6933 120 31C119.446 23.9248 120 17.1027 120 10L116 10z"/>
<path style="fill:#e5ebff; stroke:none;" d="M120 10L120 17C121.059 14.4657 121.059 12.5343 120 10z"/>
<path style="fill:#868afc; stroke:none;" d="M132 10L133 11L132 10z"/>
<path style="fill:#0001fe; stroke:none;" d="M173 10L173 13L178 13C176.461 10.8209 175.645 10.4266 173 10z"/>
<path style="fill:#4e50fc; stroke:none;" d="M177.333 10.6667C177.278 10.7222 177.222 11.7778 177.667 11.3333C177.722 11.2778 177.778 10.2222 177.333 10.6667z"/>
<path style="fill:#2d30eb; stroke:none;" d="M71 11L71 15C71.7102 13.2405 71.7102 12.7595 71 11z"/>
<path style="fill:#7776f5; stroke:none;" d="M124 11L125 12L124 11z"/>
<path style="fill:#423ae5; stroke:none;" d="M133 11L134 12L133 11z"/>
<path style="fill:#c1c7fa; stroke:none;" d="M4 12L5 13L4 12z"/>
<path style="fill:#9f91ff; stroke:none;" d="M8 12L9 13L8 12z"/>
<path style="fill:#b4b5ff; stroke:none;" d="M21 12L22 13L21 12z"/>
<path style="fill:#8b88ff; stroke:none;" d="M25 12L26 13L25 12z"/>
<path style="fill:#9aa2f5; stroke:none;" d="M38 12L39 13L38 12z"/>
<path style="fill:#cccaff; stroke:none;" d="M42 12L43 13L42 12z"/>
<path style="fill:#7c75ed; stroke:none;" d="M127 12L128 13L127 12z"/>
<path style="fill:#b4b3f3; stroke:none;" d="M130 12L131 13L130 12z"/>
<path style="fill:#8d89ff; stroke:none;" d="M134 12L135 13L134 12z"/>
<path style="fill:#dbdfff; stroke:none;" d="M6.66667 13.3333C6.22222 13.7778 7.27777 13.7222 7.33333 13.6667C7.77777 13.2222 6.72223 13.2778 6.66667 13.3333z"/>
<path style="fill:#adc0ff; stroke:none;" d="M14.6667 13.3333C14.2222 13.7778 15.2778 13.7222 15.3333 13.6667C15.7778 13.2222 14.7222 13.2778 14.6667 13.3333z"/>
<path style="fill:#c8c7f6; stroke:none;" d="M23.6667 13.3333C23.2222 13.7778 24.2778 13.7222 24.3333 13.6667C24.7778 13.2222 23.7222 13.2778 23.6667 13.3333z"/>
<path style="fill:#a5a1f6; stroke:none;" d="M31.6667 13.3333C31.2222 13.7778 32.2778 13.7222 32.3333 13.6667C32.7778 13.2222 31.7222 13.2778 31.6667 13.3333z"/>
<path style="fill:#aaadff; stroke:none;" d="M40 13L41 14L40 13z"/>
<path style="fill:#5656ed; stroke:none;" d="M124.667 13.3333C124.222 13.7778 125.278 13.7222 125.333 13.6667C125.778 13.2222 124.722 13.2778 124.667 13.3333z"/>
<path style="fill:#92a3e9; stroke:none;" d="M132 13L133 14L132 13z"/>
<path style="fill:#4748fe; stroke:none;" d="M173 13C174.506 13.683 175.315 13.8259 177 14C175.494 13.317 174.685 13.1741 173 13z"/>
<path style="fill:#9695ff; stroke:none;" d="M177 13L178 14L177 13z"/>
<path style="fill:#1e1af2; stroke:none;" d="M54 14C55.506 14.683 56.3148 14.8259 58 15C56.494 14.317 55.6852 14.1741 54 14z"/>
<path style="fill:#1515fc; stroke:none;" d="M64 14C66.3316 14.9845 68.4566 14.9813 71 15C68.6685 14.0155 66.5433 14.0187 64 14z"/>
<path style="fill:#716bff; stroke:none;" d="M5 15C6.24835 15.6848 6.54842 15.7488 8 16C6.75164 15.3152 6.45158 15.2512 5 15z"/>
<path style="fill:#4c44f5; stroke:none;" d="M14.6667 15.3333C14.2222 15.7778 15.2778 15.7222 15.3333 15.6667C15.7778 15.2222 14.7222 15.2778 14.6667 15.3333z"/>
<path style="fill:#a8a1fc; stroke:none;" d="M22 15L23 16L22 15z"/>
<path style="fill:#7f7dff; stroke:none;" d="M23.6667 15.3333C23.2222 15.7778 24.2778 15.7222 24.3333 15.6667C24.7778 15.2222 23.7222 15.2778 23.6667 15.3333z"/>
<path style="fill:#6260fc; stroke:none;" d="M31.6667 15.3333C31.2222 15.7778 32.2778 15.7222 32.3333 15.6667C32.7778 15.2222 31.7222 15.2778 31.6667 15.3333z"/>
<path style="fill:#4233f8; stroke:none;" d="M39.6667 15.3333C39.2222 15.7778 40.2778 15.7222 40.3333 15.6667C40.7778 15.2222 39.7222 15.2778 39.6667 15.3333z"/>
<path style="fill:#9588ff; stroke:none;" d="M41 15L42 16L41 15z"/>
<path style="fill:#7474f9; stroke:none;" d="M58 15L58 31C59.8123 26.6811 59.8123 19.3189 58 15z"/>
<path style="fill:#1a17fc; stroke:none;" d="M63 15L63 29C64.6668 25.0279 64.6668 18.9721 63 15z"/>
<path style="fill:#c5c1fb; stroke:none;" d="M72 15C74.6127 16.0977 77.1645 15.9928 80 16C77.3873 14.9023 74.8355 15.0072 72 15z"/>
<path style="fill:#b5b0f2; stroke:none;" d="M93 15C94.5061 15.683 95.3148 15.8259 97 16C95.494 15.317 94.6852 15.1741 93 15z"/>
<path style="fill:#bbb7ee; stroke:none;" d="M107 15C108.769 15.7789 110.036 15.9124 112 16C110.231 15.2211 108.964 15.0876 107 15z"/>
<path style="fill:#c1c4ff; stroke:none;" d="M126 15C128.332 15.9845 130.457 15.9813 133 16C130.668 15.0155 128.543 15.0187 126 15z"/>
<path style="fill:#b3acff; stroke:none;" d="M146 15C147.506 15.683 148.315 15.8259 150 16C148.494 15.317 147.685 15.1741 146 15z"/>
<path style="fill:#cdcbff; stroke:none;" d="M160.667 15.3333C160.222 15.7778 161.278 15.7222 161.333 15.6667C161.778 15.2222 160.722 15.2778 160.667 15.3333z"/>
<path style="fill:#b2adfb; stroke:none;" d="M162 15C163.506 15.683 164.315 15.8259 166 16C164.494 15.317 163.685 15.1741 162 15z"/>
<path style="fill:#d8d7ff; stroke:none;" d="M166.667 15.3333C166.222 15.7778 167.278 15.7222 167.333 15.6667C167.778 15.2222 166.722 15.2778 166.667 15.3333z"/>
<path style="fill:#aea9ff; stroke:none;" d="M183 15C185.332 15.9845 187.457 15.9813 190 16C187.668 15.0155 185.543 15.0187 183 15z"/>
<path style="fill:#767aff; stroke:none;" d="M4 16L5 17L4 16z"/>
<path style="fill:#0202ff; stroke:none;" d="M4 17L4 19C6.20067 19.4806 6.79933 19.4806 9 19L9 17C6.79934 16.5194 6.20066 16.5194 4 17z"/>
<path style="fill:#3b3cf4; stroke:none;" d="M8 16L9 17L8 16z"/>
<path style="fill:#0000fd; stroke:none;" d="M13 16L13 20L17 20L17 16L13 16z"/>
<path style="fill:#8a8dff; stroke:none;" d="M21 16L22 17L21 16z"/>
<path style="fill:#0000ff; stroke:none;" d="M21 17L21 19C23.2007 19.4806 23.7993 19.4806 26 19L26 17C23.7993 16.5194 23.2007 16.5194 21 17z"/>
<path style="fill:#4e48ff; stroke:none;" d="M25 16L26 17L25 16z"/>
<path style="fill:#0000fc; stroke:none;" d="M30 16L30 20L34 20L34 16L30 16z"/>
<path style="fill:#0000ef; stroke:none;" d="M38 16C39.0004 19.0359 39.8628 19.4943 43 19L43 17C41.1994 16.4382 39.8782 16.1759 38 16z"/>
<path style="fill:#8083f7; stroke:none;" d="M42 16L43 17L42 16z"/>
<path style="fill:#626cf6; stroke:none;" d="M70 16L71 17L70 16z"/>
<path style="fill:#0000fd; stroke:none;" d="M84 27C79.0555 27.3897 74.7588 28.9991 72 24L84 24C83.9291 21.8219 84.0885 19.2772 82.3966 17.6019C79.0446 14.2826 69.8901 15.3506 68.4336 20.1088C65.2318 30.5694 79.2658 35.5855 84 27z"/>
<path style="fill:#0000ff; stroke:none;" d="M85 16C85.6366 21.1446 85.6566 25.8454 85 31L89 31C89.0112 27.8249 91.8314 15.0312 96.821 22.3225C98.4412 24.6901 97.9922 28.2858 98 31L102 31C100.836 24.7307 102.083 13.3136 92.1605 16.8696C90.9891 17.2894 89.9548 18.3133 89 19C88.422 16.3025 87.7386 16.2107 85 16z"/>
<path style="fill:#beceff; stroke:none;" d="M89.3333 16.6667C89.2778 16.7222 89.2222 17.7778 89.6667 17.3333C89.7222 17.2778 89.7778 16.2222 89.3333 16.6667z"/>
<path style="fill:#3e31fe; stroke:none;" d="M91 16L92 17L91 16z"/>
<path style="fill:#b0a6ff; stroke:none;" d="M99 16L100 17L99 16z"/>
<path style="fill:#b8c3f9; stroke:none;" d="M104 16L105 17L104 16z"/>
<path style="fill:#3934fb; stroke:none;" d="M105 16L106 17L105 16z"/>
<path style="fill:#4135ff; stroke:none;" d="M113 16L114 17L113 16z"/>
<path style="fill:#abb4ff; stroke:none;" d="M115.333 16.6667C115.278 16.7222 115.222 17.7778 115.667 17.3333C115.722 17.2778 115.778 16.2222 115.333 16.6667z"/>
<path style="fill:#4e58fb; stroke:none;" d="M123 16L124 17L123 16z"/>
<path style="fill:#0000fc; stroke:none;" d="M137 27C132.055 27.3897 127.759 28.9991 125 24L137 24C136.88 21.8292 136.935 19.4009 135.258 17.7407C131.885 14.4014 122.917 15.2641 121.434 20.1088C118.232 30.5694 132.266 35.5855 137 27z"/>
<path style="fill:#473df6; stroke:none;" d="M134 16L135 17L134 16z"/>
<path style="fill:#0000fc; stroke:none;" d="M138 16L138 31L142 31C142.019 24.3818 142.565 20.2435 150 20C150.467 23.6955 150.969 27.2648 151 31L154 31C154 27.4228 154.854 22.4871 153.397 19.1481C151.362 14.4886 145.38 15.6993 143 19C142.014 17.5215 142 17.7968 142 16L138 16z"/>
<path style="fill:#cdddff; stroke:none;" d="M142.333 16.6667C142.278 16.7222 142.222 17.7778 142.667 17.3333C142.722 17.2777 142.778 16.2222 142.333 16.6667z"/>
<path style="fill:#a6bde5; stroke:none;" d="M152 16L153 17L152 16z"/>
<path style="fill:#c2d6ec; stroke:none;" d="M157 16L158 17L157 16z"/>
<path style="fill:#4548ff; stroke:none;" d="M158 16L159 17L158 16z"/>
<path style="fill:#0000f7; stroke:none;" d="M172 26C169.191 26.2778 164.941 28.1488 162.319 26.7168C159.481 25.1671 160.039 20.8064 163.148 20.0015C165.741 19.3303 169.315 20.8311 172 21C170.376 15.8573 161.782 13.6516 157.603 17.7423C155.805 19.5024 155.867 22.6615 156.059 24.9846C156.74 33.194 169.777 33.0394 172 26z"/>
<path style="fill:#3937ff; stroke:none;" d="M169 16L170 17L169 16z"/>
<path style="fill:#0000fa; stroke:none;" d="M173 16C173.422 21.0129 173.422 25.9871 173 31L177 31L177 16L173 16z"/>
<path style="fill:#443ffb; stroke:none;" d="M177.333 16.6667C177.278 16.7222 177.222 17.7778 177.667 17.3333C177.722 17.2778 177.778 16.2222 177.333 16.6667z"/>
<path style="fill:#a6aee8; stroke:none;" d="M180 16L181 17L180 16z"/>
<path style="fill:#0000fd; stroke:none;" d="M179 20C184.056 19.6015 187.994 18.1042 191 23C189.32 22.6 187.71 22.1942 185.976 22.0949C184.796 22.0273 183.282 21.8994 182.148 22.3187C174.44 25.1696 183.374 35.4378 189 29L191 29C192.314 30.6179 192.877 30.6933 195 31C195 27.3193 196.017 21.6242 193.821 18.4336C190.498 13.605 181.382 15.68 179 20z"/>
<path style="fill:#4045fc; stroke:none;" d="M192 16L193 17L192 16z"/>
<path style="fill:#9894fe; stroke:none;" d="M12.3333 17.6667C12.2778 17.7222 12.2222 18.7778 12.6667 18.3333C12.7222 18.2778 12.7778 17.2222 12.3333 17.6667z"/>
<path style="fill:#9e98ef; stroke:none;" d="M17.3333 17.6667C17.2778 17.7222 17.2222 18.7778 17.6667 18.3333C17.7222 18.2778 17.7778 17.2222 17.3333 17.6667z"/>
<path style="fill:#8279ff; stroke:none;" d="M29.3333 17.6667C29.2778 17.7222 29.2222 18.7778 29.6667 18.3333C29.7222 18.2778 29.7778 17.2222 29.3333 17.6667z"/>
<path style="fill:#a9a5f9; stroke:none;" d="M34.3333 17.6667C34.2778 17.7222 34.2222 18.7778 34.6667 18.3333C34.7222 18.2778 34.7778 17.2222 34.3333 17.6667z"/>
<path style="fill:#625fff; stroke:none;" d="M90 17L91 18L90 17z"/>
<path style="fill:#8d8cff; stroke:none;" d="M100 17L101 18L100 17z"/>
<path style="fill:#9a9dff; stroke:none;" d="M103 17L104 18L103 17z"/>
<path style="fill:#564bff; stroke:none;" d="M114 17L115 18L114 17z"/>
<path style="fill:#422eff; stroke:none;" d="M143 17L144 18L143 17z"/>
<path style="fill:#8e94ec; stroke:none;" d="M153 17L154 18L153 17z"/>
<path style="fill:#c3cbff; stroke:none;" d="M156 17L157 18L156 17z"/>
<path style="fill:#848bf4; stroke:none;" d="M179 17L180 18L179 17z"/>
<path style="fill:#9896ff; stroke:none;" d="M68 18L69 19L68 18z"/>
<path style="fill:#404bff; stroke:none;" d="M89 18L90 19L89 18z"/>
<path style="fill:#9c9af6; stroke:none;" d="M121 18L122 19L121 18z"/>
<path style="fill:#544dff; stroke:none;" d="M136 18L137 19L136 18z"/>
<path style="fill:#454ef1; stroke:none;" d="M142 18L143 19L142 18z"/>
<path style="fill:#8893f3; stroke:none;" d="M177 18L177 21C177.696 19.4463 177.696 19.5537 177 18z"/>
<path style="fill:#5754e6; stroke:none;" d="M194 18L195 19L194 18z"/>
<path style="fill:#b0b4fd; stroke:none;" d="M8 19L9 20L8 19z"/>
<path style="fill:#bac3ff; stroke:none;" d="M21 19L22 20L21 19z"/>
<path style="fill:#8f95f8; stroke:none;" d="M25 19L26 20L25 19z"/>
<path style="fill:#99a0f8; stroke:none;" d="M38 19L39 20L38 19z"/>
<path style="fill:#c8cfff; stroke:none;" d="M42 19L43 20L42 19z"/>
<path style="fill:#8288ff; stroke:none;" d="M73 19L74 20L73 19z"/>
<path style="fill:#ffffff; stroke:none;" d="M73 20C75.3316 20.9845 77.4567 20.9813 80 21C77.4919 19.114 76.0175 19.1834 73 20z"/>
<path style="fill:#282cff; stroke:none;" d="M85 19L85 25C85.9511 22.7147 85.9511 21.2853 85 19z"/>
<path style="fill:#8e8ef8; stroke:none;" d="M101 19C101.684 20.58 101.805 20.7772 103 22C102.316 20.42 102.195 20.2228 101 19z"/>
<path style="fill:#2d20ff; stroke:none;" d="M109 19C110.769 19.7789 112.036 19.9124 114 20C112.231 19.2211 110.964 19.0876 109 19z"/>
<path style="fill:#a2a6ff; stroke:none;" d="M126 19L127 20L126 19z"/>
<path style="fill:#ffffff; stroke:none;" d="M125 20C127.613 21.0977 130.165 20.9928 133 21C130.24 19.1453 128.215 19.3068 125 20z"/>
<path style="fill:#c3c2ff; stroke:none;" d="M131 19L132 20L131 19z"/>
<path style="fill:#a1a3fa; stroke:none;" d="M154 19L154 21L156 21C155.455 19.3648 155.635 19.5451 154 19z"/>
<path style="fill:#3828ff; stroke:none;" d="M162 19C163.506 19.683 164.315 19.8259 166 20C164.494 19.317 163.685 19.1741 162 19z"/>
<path style="fill:#494efa; stroke:none;" d="M173 19L173 22C173.696 20.4463 173.696 20.5537 173 19z"/>
<path style="fill:#4236ff; stroke:none;" d="M183 19L184 20L183 19z"/>
<path style="fill:#fffffa; stroke:none;" d="M183 20C185.233 21.0094 187.604 21.4052 190 22C188.08 19.0431 186.304 19.1172 183 20z"/>
<path style="fill:#6f6cf6; stroke:none;" d="M189 19L190 20L189 19z"/>
<path style="fill:#acaaf6; stroke:none;" d="M6 20L7 21L6 20z"/>
<path style="fill:#beb1fb; stroke:none;" d="M14.6667 20.3333C14.2222 20.7778 15.2778 20.7222 15.3333 20.6667C15.7778 20.2222 14.7222 20.2778 14.6667 20.3333z"/>
<path style="fill:#d9d3ff; stroke:none;" d="M23.6667 20.3333C23.2222 20.7778 24.2778 20.7222 24.3333 20.6667C24.7778 20.2222 23.7222 20.2778 23.6667 20.3333z"/>
<path style="fill:#a8a2ff; stroke:none;" d="M31.6667 20.3333C31.2222 20.7778 32.2778 20.7222 32.3333 20.6667C32.7778 20.2222 31.7222 20.2778 31.6667 20.3333z"/>
<path style="fill:#b3b6eb; stroke:none;" d="M40 20L41 21L40 20z"/>
<path style="fill:#bfbce6; stroke:none;" d="M72 20L73 21L72 20z"/>
<path style="fill:#9b8cfa; stroke:none;" d="M84 20L84 25C84.8299 22.9695 84.8299 22.0305 84 20z"/>
<path style="fill:#bbc5ff; stroke:none;" d="M91 20L92 21L91 20z"/>
<path style="fill:#4647f4; stroke:none;" d="M96 20L97 21L96 20z"/>
<path style="fill:#443cfc; stroke:none;" d="M107 20L108 21L107 20z"/>
<path style="fill:#ffffff; stroke:none;" d="M115 27L115 20C112.149 20.0338 102.628 23.0076 109.314 26.3966C110.965 27.2335 113.219 26.9789 115 27z"/>
<path style="fill:#969fff; stroke:none;" d="M120.333 20.6667C120.278 20.7222 120.222 21.7778 120.667 21.3333C120.722 21.2778 120.778 20.2222 120.333 20.6667z"/>
<path style="fill:#928af7; stroke:none;" d="M137 20L137 23C137.696 21.4463 137.696 21.5537 137 20z"/>
<path style="fill:#3f3cff; stroke:none;" d="M143 20L144 21L143 20z"/>
<path style="fill:#3b2df7; stroke:none;" d="M149 20L150 21L149 20z"/>
<path style="fill:#4e41ff; stroke:none;" d="M160 20L161 21L160 20z"/>
<path style="fill:#fffffe; stroke:none;" d="M173 25L173 22C169.933 21.6263 166.208 19.7109 163.148 20.3719C160.193 21.0103 159.352 25.0584 162.319 26.3781C165.357 27.7295 169.865 25.3821 173 25z"/>
<path style="fill:#bdaefe; stroke:none;" d="M172.333 20.6667C172.278 20.7222 172.222 21.7778 172.667 21.3333C172.722 21.2778 172.778 20.2222 172.333 20.6667z"/>
<path style="fill:#d1dff8; stroke:none;" d="M179 20C180.377 20.9114 181.44 21.4038 183 22C181.686 20.3821 181.123 20.3067 179 20z"/>
<path style="fill:#b0b7ff; stroke:none;" d="M67 21L67 26C67.8299 23.9695 67.8299 23.0305 67 21z"/>
<path style="fill:#a4a1ff; stroke:none;" d="M72 21C74.6127 22.0977 77.1645 21.9928 80 22C77.3873 20.9023 74.8355 21.0072 72 21z"/>
<path style="fill:#6562fa; stroke:none;" d="M101 21L101 29C102.988 26.0738 103.125 23.8484 101 21z"/>
<path style="fill:#6763f2; stroke:none;" d="M115 21L116 22L115 21z"/>
<path style="fill:#2121ff; stroke:none;" d="M119 21L119 27C119.951 24.7147 119.951 23.2853 119 21z"/>
<path style="fill:#a59ffa; stroke:none;" d="M125 21C127.613 22.0977 130.165 21.9928 133 22C130.387 20.9023 127.835 21.0072 125 21z"/>
<path style="fill:#867bff; stroke:none;" d="M154.667 21.3333C154.222 21.7778 155.278 21.7222 155.333 21.6667C155.778 21.2222 154.722 21.2778 154.667 21.3333z"/>
<path style="fill:#342bff; stroke:none;" d="M168 21C169.506 21.683 170.315 21.8259 172 22C170.494 21.317 169.685 21.1741 168 21z"/>
<path style="fill:#5150fc; stroke:none;" d="M177.333 21.6667C177.278 21.7222 177.222 22.7778 177.667 22.3333C177.722 22.2778 177.778 21.2222 177.333 21.6667z"/>
<path style="fill:#6d6eed; stroke:none;" d="M183 21C184.769 21.7789 186.036 21.9124 188 22C186.231 21.2211 184.964 21.0876 183 21z"/>
<path style="fill:#adadff; stroke:none;" d="M188 21L189 22L188 21z"/>
<path style="fill:#585cff; stroke:none;" d="M190 21L189 23L191 23C191 21.1468 191.3 21.6499 190 21z"/>
<path style="fill:#b7c6ff; stroke:none;" d="M6.66667 22.3333C6.22223 22.7778 7.27778 22.7222 7.33333 22.6667C7.77779 22.2222 6.72222 22.2778 6.66667 22.3333z"/>
<path style="fill:#9aa4ee; stroke:none;" d="M14.6667 22.3333C14.2222 22.7778 15.2778 22.7222 15.3333 22.6667C15.7778 22.2222 14.7222 22.2778 14.6667 22.3333z"/>
<path style="fill:#a6a6ff; stroke:none;" d="M23 22L24 23L23 22z"/>
<path style="fill:#a4aaec; stroke:none;" d="M31.6667 22.3333C31.2222 22.7778 32.2778 22.7222 32.3333 22.6667C32.7778 22.2222 31.7222 22.2778 31.6667 22.3333z"/>
<path style="fill:#c4c7ff; stroke:none;" d="M40.6667 22.3333C40.2222 22.7778 41.2778 22.7222 41.3333 22.6667C41.7778 22.2222 40.7222 22.2778 40.6667 22.3333z"/>
<path style="fill:#3c35f8; stroke:none;" d="M89 22L90 23L89 22z"/>
<path style="fill:#3e33fa; stroke:none;" d="M97 22L97 31C98.2561 28.0059 98.2561 24.9941 97 22z"/>
<path style="fill:#a6a4fa; stroke:none;" d="M115 22L115 26C115.71 24.2405 115.71 23.7595 115 22z"/>
<path style="fill:#7b7cff; stroke:none;" d="M120 22L120 26C120.71 24.2405 120.71 23.7595 120 22z"/>
<path style="fill:#8c86ff; stroke:none;" d="M142 22L142 31C143.256 28.0059 143.256 24.9941 142 22z"/>
<path style="fill:#7171fc; stroke:none;" d="M154 22L154 29C155.393 26.6889 155.765 24.6914 156 22L154 22z"/>
<path style="fill:#8688f6; stroke:none;" d="M179 22L180 23L179 22z"/>
<path style="fill:#b5b6f8; stroke:none;" d="M4 23L5 24L4 23z"/>
<path style="fill:#0000fb; stroke:none;" d="M4 24L4 26C6.20067 26.4806 6.79933 26.4806 9 26L9 24C6.79933 23.5194 6.20066 23.5194 4 24z"/>
<path style="fill:#8681f5; stroke:none;" d="M8 23L9 24L8 23z"/>
<path style="fill:#0004fa; stroke:none;" d="M13 23L13 27L17 27L17 23L13 23z"/>
<path style="fill:#b2a8f4; stroke:none;" d="M21 23L22 24L21 23z"/>
<path style="fill:#0000fe; stroke:none;" d="M21 24L21 26C23.2007 26.4806 23.7993 26.4806 26 26L26 24C23.7993 23.5194 23.2007 23.5194 21 24z"/>
<path style="fill:#a6aeff; stroke:none;" d="M25 23L26 24L25 23z"/>
<path style="fill:#0000ff; stroke:none;" d="M30 23L30 27L34 27L34 23L30 23M38 24L38 26C39.8006 26.5618 41.1218 26.8241 43 27C41.9996 23.9641 41.1372 23.5057 38 24z"/>
<path style="fill:#7a7fe2; stroke:none;" d="M42 23L43 24L42 23z"/>
<path style="fill:#6c6aff; stroke:none;" d="M89 23L89 31C90.1614 28.2302 90.1614 25.7698 89 23z"/>
<path style="fill:#2a36ff; stroke:none;" d="M137.667 23.3333C137.222 23.7778 138.278 23.7222 138.333 23.6667C138.778 23.2222 137.722 23.2778 137.667 23.3333z"/>
<path style="fill:#2b1cf1; stroke:none;" d="M150 23L150 31C151.161 28.2301 151.161 25.7699 150 23z"/>
<path style="fill:#9398ff; stroke:none;" d="M177 23L177 25L179 25C178.455 23.3648 178.635 23.5451 177 23z"/>
<path style="fill:#797cfb; stroke:none;" d="M12.3333 24.6667C12.2778 24.7222 12.2222 25.7778 12.6667 25.3333C12.7222 25.2778 12.7778 24.2222 12.3333 24.6667z"/>
<path style="fill:#9497ff; stroke:none;" d="M17.3333 24.6667C17.2778 24.7222 17.2222 25.7778 17.6667 25.3333C17.7222 25.2778 17.7778 24.2222 17.3333 24.6667z"/>
<path style="fill:#7367ff; stroke:none;" d="M29.3333 24.6667C29.2778 24.7222 29.2222 25.7778 29.6667 25.3333C29.7222 25.2778 29.7778 24.2222 29.3333 24.6667z"/>
<path style="fill:#8b89ec; stroke:none;" d="M34.3333 24.6667C34.2778 24.7222 34.2222 25.7778 34.6667 25.3333C34.7222 25.2778 34.7778 24.2222 34.3333 24.6667z"/>
<path style="fill:#5a5df6; stroke:none;" d="M72 24C75.6975 25.5515 80.0168 25 84 25C80.3025 23.4485 75.9832 24 72 24z"/>
<path style="fill:#665dff; stroke:none;" d="M125 24C128.697 25.5515 133.017 25 137 25C133.303 23.4485 128.983 24 125 24z"/>
<path style="fill:#aba3f4; stroke:none;" d="M137 24L138 25L137 24z"/>
<path style="fill:#7067ff; stroke:none;" d="M184 24C185.769 24.7789 187.036 24.9124 189 25C187.231 24.2211 185.964 24.0876 184 24z"/>
<path style="fill:#fffffd; stroke:none;" d="M72 25C76.0547 29.1207 79.9157 26.6195 85 26C81.0413 24.3389 76.2634 25 72 25z"/>
<path style="fill:#ffffff; stroke:none;" d="M125 25C129.055 29.1207 132.916 26.6195 138 26C134.041 24.3389 129.263 25 125 25z"/>
<path style="fill:#2111f9; stroke:none;" d="M168 25C169.506 25.683 170.315 25.8259 172 26C170.494 25.317 169.685 25.1741 168 25z"/>
<path style="fill:#5e78ec; stroke:none;" d="M172.333 25.6667C172.278 25.7222 172.222 26.7778 172.667 26.3333C172.722 26.2778 172.778 25.2222 172.333 25.6667z"/>
<path style="fill:#4a52ff; stroke:none;" d="M173 25L173 28C173.696 26.4463 173.696 26.5537 173 25z"/>
<path style="fill:#7b7cff; stroke:none;" d="M177 25L177 31C178.34 28.65 178.282 27.3888 177 25z"/>
<path style="fill:#5052f7; stroke:none;" d="M178 25L178 28C178.696 26.4463 178.696 26.5537 178 25z"/>
<path style="fill:#fbfcf5; stroke:none;" d="M183 25C185.123 28.2638 187.877 28.2638 190 25L183 25z"/>
<path style="fill:#99a0f7; stroke:none;" d="M4 26L5 27L4 26z"/>
<path style="fill:#6759ff; stroke:none;" d="M8 26L9 27L8 26z"/>
<path style="fill:#7872ff; stroke:none;" d="M21 26L22 27L21 26z"/>
<path style="fill:#6c6cff; stroke:none;" d="M25 26L26 27L25 26z"/>
<path style="fill:#949dff; stroke:none;" d="M38 26L39 27L38 26z"/>
<path style="fill:#7e7bd4; stroke:none;" d="M72 26L73 27L72 26z"/>
<path style="fill:#2929f7; stroke:none;" d="M80 26C81.5061 26.683 82.3148 26.8259 84 27C82.494 26.317 81.6852 26.1741 80 26z"/>
<path style="fill:#818cfa; stroke:none;" d="M84.3333 26.6667C84.2778 26.7222 84.2222 27.7778 84.6667 27.3333C84.7222 27.2778 84.7778 26.2222 84.3333 26.6667z"/>
<path style="fill:#2d40f6; stroke:none;" d="M85 26L85 29C85.6961 27.4463 85.6961 27.5537 85 26z"/>
<path style="fill:#4c45f6; stroke:none;" d="M107 26L108 27L107 26z"/>
<path style="fill:#9d98fe; stroke:none;" d="M125 26L126 27L125 26z"/>
<path style="fill:#2b23ff; stroke:none;" d="M133 26C134.506 26.683 135.315 26.8259 137 27C135.494 26.317 134.685 26.1741 133 26z"/>
<path style="fill:#9195ff; stroke:none;" d="M137.333 26.6667C137.278 26.7222 137.222 27.7778 137.667 27.3333C137.722 27.2778 137.778 26.2222 137.333 26.6667z"/>
<path style="fill:#a7a6ff; stroke:none;" d="M155 26L156 27L155 26z"/>
<path style="fill:#5036f1; stroke:none;" d="M160 26L161 27L160 26z"/>
<path style="fill:#4b31ec; stroke:none;" d="M167 26L168 27L167 26z"/>
<path style="fill:#464de7; stroke:none;" d="M182 26L183 27L182 26z"/>
<path style="fill:#585fff; stroke:none;" d="M190 26L191 27L190 26z"/>
<path style="fill:#9295ff; stroke:none;" d="M5 27C6.24835 27.6848 6.54842 27.7488 8 28C6.75165 27.3152 6.45158 27.2512 5 27z"/>
<path style="fill:#636de4; stroke:none;" d="M14.6667 27.3333C14.2222 27.7778 15.2778 27.7222 15.3333 27.6667C15.7778 27.2222 14.7222 27.2778 14.6667 27.3333z"/>
<path style="fill:#8c8dfa; stroke:none;" d="M22 27L23 28L22 27z"/>
<path style="fill:#4b53f1; stroke:none;" d="M23 27L24 28L23 27z"/>
<path style="fill:#8486f8; stroke:none;" d="M24 27L25 28L24 27z"/>
<path style="fill:#5957f3; stroke:none;" d="M31.6667 27.3333C31.2222 27.7778 32.2778 27.7222 32.3333 27.6667C32.7778 27.2222 31.7222 27.2778 31.6667 27.3333z"/>
<path style="fill:#a8acf9; stroke:none;" d="M39 27L40 28L39 27z"/>
<path style="fill:#7a75f6; stroke:none;" d="M40.6667 27.3333C40.2222 27.7778 41.2778 27.7222 41.3333 27.6667C41.7778 27.2222 40.7222 27.2778 40.6667 27.3333z"/>
<path style="fill:#a2a1ff; stroke:none;" d="M73 27L74 28L73 27z"/>
<path style="fill:#5c48ff; stroke:none;" d="M79 27L80 28L79 27z"/>
<path style="fill:#b6bef3; stroke:none;" d="M102 27L103 28L102 27z"/>
<path style="fill:#2422fe; stroke:none;" d="M109 27C110.506 27.683 111.315 27.8259 113 28C111.494 27.317 110.685 27.1741 109 27z"/>
<path style="fill:#a3a2fc; stroke:none;" d="M126 27L127 28L126 27z"/>
<path style="fill:#493cff; stroke:none;" d="M132 27L133 28L132 27z"/>
<path style="fill:#3331ff; stroke:none;" d="M162 27C163.506 27.683 164.315 27.8259 166 28C164.494 27.317 163.685 27.1741 162 27z"/>
<path style="fill:#b8c9ff; stroke:none;" d="M172 27L173 28L172 27z"/>
<path style="fill:#a4a2ff; stroke:none;" d="M183 27L184 28L183 27z"/>
<path style="fill:#9d9af0; stroke:none;" d="M189 27L190 28L189 27z"/>
<path style="fill:#6f70ff; stroke:none;" d="M68 28L69 29L68 28z"/>
<path style="fill:#9094f0; stroke:none;" d="M121 28L122 29L121 28z"/>
<path style="fill:#9b99ff; stroke:none;" d="M83 29L84 30L83 29z"/>
<path style="fill:#7877f3; stroke:none;" d="M103 29L104 30L103 29z"/>
<path style="fill:#3932f5; stroke:none;" d="M114 29L115 30L114 29z"/>
<path style="fill:#cfe1ee; stroke:none;" d="M115.333 29.6667C115.278 29.7222 115.222 30.7778 115.667 30.3333C115.722 30.2778 115.778 29.2222 115.333 29.6667z"/>
<path style="fill:#bfb1ff; stroke:none;" d="M136 29L137 30L136 29z"/>
<path style="fill:#3524ff; stroke:none;" d="M154.333 29.6667C154.278 29.7222 154.222 30.7778 154.667 30.3333C154.722 30.2778 154.778 29.2222 154.333 29.6667z"/>
<path style="fill:#bcd8e9; stroke:none;" d="M156 29L157 30L156 29z"/>
<path style="fill:#6b70ff; stroke:none;" d="M189 29C189.545 30.6352 189.365 30.4549 191 31L191 29L189 29z"/>
<path style="fill:#0000f9; stroke:none;" d="M4 31L4 33C5.80057 33.5618 7.12184 33.8241 9 34C7.99962 30.9641 7.13718 30.5057 4 31z"/>
<path style="fill:#8282f3; stroke:none;" d="M13 30L14 31L13 30z"/>
<path style="fill:#0000ff; stroke:none;" d="M14 30C13.5194 32.2007 13.5194 32.7993 14 35L16 35C16.4806 32.7993 16.4806 32.2007 16 30L14 30z"/>
<path style="fill:#5953f3; stroke:none;" d="M16 30L17 31L16 30z"/>
<path style="fill:#0000fe; stroke:none;" d="M22 30C22.1005 32.9045 22.4764 33.5649 25 35C25.4943 31.8628 25.0359 31.0004 22 30z"/>
<path style="fill:#6661ff; stroke:none;" d="M30 30L31 31L30 30z"/>
<path style="fill:#0000fa; stroke:none;" d="M31 30C30.5194 32.2007 30.5194 32.7993 31 35L33 35C33.4806 32.7993 33.4806 32.2007 33 30L31 30z"/>
<path style="fill:#8281fb; stroke:none;" d="M33 30L34 31L33 30z"/>
<path style="fill:#b9c3ee; stroke:none;" d="M38 30L39 31L38 30z"/>
<path style="fill:#0000ff; stroke:none;" d="M39 35C41.2489 33.8465 41.8465 33.2489 43 31C39.4531 30.4531 38.4532 31.4531 39 35z"/>
<path style="fill:#7b73ff; stroke:none;" d="M70 30L71 31L70 30z"/>
<path style="fill:#929aff; stroke:none;" d="M82 30L83 31L82 30z"/>
<path style="fill:#8e92fd; stroke:none;" d="M104 30L105 31L104 30z"/>
<path style="fill:#6f6bff; stroke:none;" d="M123 30L124 31L123 30z"/>
<path style="fill:#9eb2fd; stroke:none;" d="M135 30L136 31L135 30z"/>
<path style="fill:#685cfc; stroke:none;" d="M158 30L159 31L158 30z"/>
<path style="fill:#3939ff; stroke:none;" d="M169 30L170 31L169 30z"/>
<path style="fill:#b7cce7; stroke:none;" d="M170 30L171 31L170 30z"/>
<path style="fill:#7b83e2; stroke:none;" d="M179 30L180 31L179 30z"/>
<path style="fill:#8f94ff; stroke:none;" d="M17 31L18 32L17 31z"/>
<path style="fill:#3f38ff; stroke:none;" d="M21 31L22 32L21 31z"/>
<path style="fill:#a7a9ff; stroke:none;" d="M29 31L30 32L29 31z"/>
<path style="fill:#c9caff; stroke:none;" d="M34 31L35 32L34 31z"/>
<path style="fill:#b6b8fa; stroke:none;" d="M73 31C74.769 31.7789 76.0359 31.9124 78 32C76.231 31.2211 74.964 31.0876 73 31z"/>
<path style="fill:#d9d5fd; stroke:none;" d="M78.6667 31.3333C78.2222 31.7778 79.2778 31.7222 79.3333 31.6667C79.7778 31.2222 78.7222 31.2778 78.6667 31.3333z"/>
<path style="fill:#acb3e2; stroke:none;" d="M107 31C108.769 31.7789 110.036 31.9124 112 32C110.231 31.2211 108.964 31.0876 107 31z"/>
<path style="fill:#bfb5ff; stroke:none;" d="M126 31C128.052 31.8742 129.747 31.9528 132 32C129.948 31.1258 128.253 31.0472 126 31z"/>
<path style="fill:#acacfe; stroke:none;" d="M161 31C163.052 31.8743 164.747 31.9528 167 32C164.948 31.1258 163.253 31.0472 161 31z"/>
<path style="fill:#adacff; stroke:none;" d="M181 31C183.052 31.8743 184.747 31.9528 187 32C184.948 31.1258 183.253 31.0472 181 31z"/>
<path style="fill:#8e93ff; stroke:none;" d="M12 32L13 33L12 32z"/>
<path style="fill:#4338f5; stroke:none;" d="M17 32L18 33L17 32z"/>
<path style="fill:#5e5bf5; stroke:none;" d="M29 32L30 33L29 32z"/>
<path style="fill:#8281ff; stroke:none;" d="M34 32L35 33L34 32z"/>
<path style="fill:#6861ff; stroke:none;" d="M4 33L5 34L4 33z"/>
<path style="fill:#b1b9ff; stroke:none;" d="M17 33L18 34L17 33z"/>
<path style="fill:#554ef5; stroke:none;" d="M21 33L22 34L21 33z"/>
<path style="fill:#b9baf3; stroke:none;" d="M29 33L30 34L29 33z"/>
<path style="fill:#554dfb; stroke:none;" d="M42 33L43 34L42 33z"/>
<path style="fill:#5e5de4; stroke:none;" d="M5 34L6 35L5 34z"/>
<path style="fill:#383bf4; stroke:none;" d="M6.66667 34.3333C6.22222 34.7778 7.27778 34.7222 7.33333 34.6667C7.77778 34.2222 6.72222 34.2778 6.66667 34.3333z"/>
<path style="fill:#aeb7f6; stroke:none;" d="M13 34L14 35L13 34z"/>
<path style="fill:#807ff3; stroke:none;" d="M16 34L17 35L16 34z"/>
<path style="fill:#4c44f2; stroke:none;" d="M22 34L23 35L22 34z"/>
<path style="fill:#8d8cff; stroke:none;" d="M30 34L31 35L30 34z"/>
<path style="fill:#aaaeff; stroke:none;" d="M33 34L34 35L33 34z"/>
<path style="fill:#564ce9; stroke:none;" d="M41 34L42 35L41 34z"/>
<path style="fill:#8b71ff; stroke:none;" d="M57.6667 35.3333C57.2222 35.7778 58.2778 35.7222 58.3333 35.6667C58.7778 35.2222 57.7222 35.2778 57.6667 35.3333z"/>
<path style="fill:#7271eb; stroke:none;" d="M115 35L116 39C116.751 36.9536 116.656 36.4043 115 35z"/>
<path style="fill:#c8d3ef; stroke:none;" d="M166.333 35.6667C166.278 35.7223 166.222 36.7778 166.667 36.3333C166.722 36.2778 166.778 35.2222 166.333 35.6667z"/>
<path style="fill:#2911f3; stroke:none;" d="M167 35L167 42C168.059 39.4657 168.059 37.5343 167 35z"/>
<path style="fill:#513dff; stroke:none;" d="M185 35L186 36L185 35z"/>
<path style="fill:#d3edeb; stroke:none;" d="M62.6667 36.3333C62.2222 36.7778 63.2778 36.7222 63.3333 36.6667C63.7778 36.2222 62.7222 36.2778 62.6667 36.3333z"/>
<path style="fill:#a69efe; stroke:none;" d="M67 36L68 37L67 36z"/>
<path style="fill:#5748ef; stroke:none;" d="M68 36L69 37L68 36z"/>
<path style="fill:#4a3cfe; stroke:none;" d="M131 36L132 37L131 36z"/>
<path style="fill:#7d80f2; stroke:none;" d="M5 37L6 38L5 37z"/>
<path style="fill:#0000fe; stroke:none;" d="M5 42C7.62647 41.1613 8.1613 40.6265 9 38C5.80786 38.1349 5.13489 38.8079 5 42z"/>
<path style="fill:#3d3efd; stroke:none;" d="M7 37L8 38L7 37z"/>
<path style="fill:#2422ff; stroke:none;" d="M14.6667 37.3333C14.2222 37.7778 15.2778 37.7222 15.3333 37.6667C15.7778 37.2222 14.7222 37.2778 14.6667 37.3333z"/>
<path style="fill:#a4a6ff; stroke:none;" d="M16 37L17 38L16 37z"/>
<path style="fill:#6660ff; stroke:none;" d="M22 37L23 38L22 37z"/>
<path style="fill:#0000ff; stroke:none;" d="M23 37C22.0427 38.5167 21.6128 39.3385 21 41C23.2007 41.4806 23.7993 41.4806 26 41C25.0643 39.0514 24.6076 38.4498 23 37z"/>
<path style="fill:#5454ff; stroke:none;" d="M24 37L25 38L24 37z"/>
<path style="fill:#7e82f0; stroke:none;" d="M30 37L31 38L30 37z"/>
<path style="fill:#0000fd; stroke:none;" d="M30 42C33.0359 40.9996 33.4943 40.1372 33 37C30.4764 38.4351 30.1005 39.0955 30 42z"/>
<path style="fill:#4e48ff; stroke:none;" d="M39 37L40 38L39 37z"/>
<path style="fill:#0000fe; stroke:none;" d="M38 38C39.0004 41.0359 39.8628 41.4943 43 41C41.5649 38.4764 40.9045 38.1005 38 38z"/>
<path style="fill:#544aea; stroke:none;" d="M41 37L42 38L41 37z"/>
<path style="fill:#938dff; stroke:none;" d="M57 37L58 42C58.9157 39.6996 58.8793 38.6232 57 37z"/>
<path style="fill:#4a43f5; stroke:none;" d="M60.6667 37.3333C60.2222 37.7778 61.2778 37.7222 61.3333 37.6667C61.7778 37.2222 60.7222 37.2778 60.6667 37.3333z"/>
<path style="fill:#281fff; stroke:none;" d="M62 37C63.2484 37.6848 63.5484 37.7488 65 38C63.7516 37.3152 63.4516 37.2512 62 37z"/>
<path style="fill:#0000ff; stroke:none;" d="M67.6667 37.3333C67.2222 37.7778 68.2778 37.7222 68.3333 37.6667C68.7778 37.2222 67.7222 37.2778 67.6667 37.3333z"/>
<path style="fill:#231ff4; stroke:none;" d="M69 37C70.2484 37.6848 70.5484 37.7488 72 38C70.7517 37.3152 70.4516 37.2512 69 37z"/>
<path style="fill:#4c44ff; stroke:none;" d="M74 37C75.769 37.7789 77.0359 37.9124 79 38C77.231 37.2211 75.9641 37.0876 74 37z"/>
<path style="fill:#4335f2; stroke:none;" d="M81 37C82.8084 37.9673 84.4176 38.6984 86 40C87.2347 36.7248 83.4989 37.0414 81 37z"/>
<path style="fill:#eef1ff; stroke:none;" d="M87 37L87 44C88.0094 41.767 88.4052 39.3956 89 37L87 37z"/>
<path style="fill:#564df0; stroke:none;" d="M89 37C90.769 37.7789 92.0359 37.9124 94 38C92.2309 37.2211 90.9641 37.0876 89 37z"/>
<path style="fill:#7c94e7; stroke:none;" d="M95 37L95 40C95.6961 38.4463 95.6961 38.5537 95 37z"/>
<path style="fill:#493cff; stroke:none;" d="M96 37C97.5061 37.683 98.3148 37.8259 100 38C98.494 37.317 97.6852 37.1741 96 37z"/>
<path style="fill:#8a83ec; stroke:none;" d="M100 37L101 38L100 37z"/>
<path style="fill:#a2a3ff; stroke:none;" d="M102 37L103 38L102 37z"/>
<path style="fill:#3629ff; stroke:none;" d="M103 37C104.648 37.9241 106.175 38.4494 108 39C106.46 37.1969 105.402 37.168 103 37z"/>
<path style="fill:#b6b2ff; stroke:none;" d="M110 37L111 38L110 37z"/>
<path style="fill:#4432ef; stroke:none;" d="M111 37C112.506 37.683 113.315 37.8259 115 38C113.494 37.317 112.685 37.1741 111 37z"/>
<path style="fill:#0e06ea; stroke:none;" d="M115.333 37.6667C115.278 37.7222 115.222 38.7778 115.667 38.3333C115.722 38.2778 115.778 37.2222 115.333 37.6667z"/>
<path style="fill:#928cff; stroke:none;" d="M118 37L119 38L118 37z"/>
<path style="fill:#3f32ff; stroke:none;" d="M119 37C120.506 37.6831 121.315 37.8259 123 38C121.494 37.317 120.685 37.1741 119 37z"/>
<path style="fill:#766cf9; stroke:none;" d="M123 37L124 38L123 37z"/>
<path style="fill:#4f42ff; stroke:none;" d="M130 37L131 38L130 37z"/>
<path style="fill:#2c1cff; stroke:none;" d="M131 37C131.168 39.4025 131.197 40.4602 133 42C133.027 39.6214 133.06 39.3168 135 38C133.494 37.317 132.685 37.1741 131 37z"/>
<path style="fill:#c2c0ff; stroke:none;" d="M135 37L136 38L135 37z"/>
<path style="fill:#473ff9; stroke:none;" d="M137 37C138.769 37.7789 140.036 37.9124 142 38C140.231 37.2211 138.964 37.0876 137 37z"/>
<path style="fill:#c6c4ff; stroke:none;" d="M142 37L143 38L142 37z"/>
<path style="fill:#3c2cfe; stroke:none;" d="M145 37C146.648 37.9241 148.175 38.4494 150 39C148.46 37.1969 147.402 37.168 145 37z"/>
<path style="fill:#aeb8f8; stroke:none;" d="M151 37L150 39L152 39C152 37.1468 152.3 37.6498 151 37z"/>
<path style="fill:#4f49ff; stroke:none;" d="M152.667 37.3333C152.222 37.7778 153.278 37.7222 153.333 37.6667C153.778 37.2222 152.722 37.2778 152.667 37.3333z"/>
<path style="fill:#2f1bfd; stroke:none;" d="M154 37C155.248 37.6848 155.548 37.7488 157 38C155.752 37.3152 155.452 37.2512 154 37z"/>
<path style="fill:#c5d2ff; stroke:none;" d="M157 37L158 38L157 37z"/>
<path style="fill:#4035ff; stroke:none;" d="M160 37C161.648 37.9241 163.175 38.4494 165 39C163.46 37.1969 162.403 37.168 160 37z"/>
<path style="fill:#3537fd; stroke:none;" d="M169 41C171.622 39.3254 172.612 38.9724 175 41C176.109 36.0646 170.295 37.0997 169 41z"/>
<path style="fill:#c1cdf3; stroke:none;" d="M177 37L178 38L177 37z"/>
<path style="fill:#3b31ff; stroke:none;" d="M178 37C179.648 37.9241 181.175 38.4494 183 39C181.46 37.1969 180.403 37.168 178 37z"/>
<path style="fill:#a2adff; stroke:none;" d="M183 37L184 38L183 37z"/>
<path style="fill:#5f56fa; stroke:none;" d="M185 37L186 38L185 37z"/>
<path style="fill:#bdb5fc; stroke:none;" d="M187 37L187 40C187.696 38.4463 187.696 38.5537 187 37z"/>
<path style="fill:#1a06f4; stroke:none;" d="M188 37L189 38L188 37z"/>
<path style="fill:#4426f6; stroke:none;" d="M189 37C190.506 37.683 191.315 37.8259 193 38C191.494 37.317 190.685 37.1741 189 37z"/>
<path style="fill:#8f8eff; stroke:none;" d="M4 38L5 39L4 38z"/>
<path style="fill:#0000fa; stroke:none;" d="M13 38C13.8387 40.6265 14.3735 41.1613 17 42L17 38L13 38z"/>
<path style="fill:#b6bfff; stroke:none;" d="M17 38L18 39L17 38z"/>
<path style="fill:#4a43eb; stroke:none;" d="M21 38L22 39L21 38z"/>
<path style="fill:#504cff; stroke:none;" d="M25 38L26 39L25 38z"/>
<path style="fill:#9b99fe; stroke:none;" d="M29 38L30 39L29 38z"/>
<path style="fill:#3c34e6; stroke:none;" d="M42 38L43 39L42 38z"/>
<path style="fill:#4e49fe; stroke:none;" d="M57 38L57 42C57.7102 40.2405 57.7102 39.7595 57 38z"/>
<path style="fill:#0000f4; stroke:none;" d="M60 38L61 39L60 38z"/>
<path style="fill:#bec9ff; stroke:none;" d="M61 38L62 39L61 38z"/>
<path style="fill:#bbc6ff; stroke:none;" d="M64 38L65 39L64 38z"/>
<path style="fill:#321ff6; stroke:none;" d="M65 38L65 42C65.7102 40.2405 65.7102 39.7595 65 38z"/>
<path style="fill:#aca8ff; stroke:none;" d="M67 38L67 41C67.6961 39.4463 67.6961 39.5537 67 38z"/>
<path style="fill:#4f3dff; stroke:none;" d="M68 38L68 41C68.6961 39.4463 68.6961 39.5537 68 38z"/>
<path style="fill:#3929ff; stroke:none;" d="M73 38L73 41C73.6961 39.4463 73.6961 39.5537 73 38z"/>
<path style="fill:#6069fc; stroke:none;" d="M74 38C75.5398 39.8031 76.5975 39.832 79 40C77.3518 39.0759 75.8251 38.5506 74 38z"/>
<path style="fill:#ffffff; stroke:none;" d="M75 38C76.2484 38.6848 76.5484 38.7488 78 39C76.7517 38.3152 76.4516 38.2512 75 38z"/>
<path style="fill:#0800ff; stroke:none;" d="M78 38L79 39L78 38z"/>
<path style="fill:#898df4; stroke:none;" d="M79 38L80 39L79 38z"/>
<path style="fill:#0000ff; stroke:none;" d="M81 38L82 39L81 38z"/>
<path style="fill:#fffff7; stroke:none;" d="M82 38L82 41L86 41L86 38L82 38z"/>
<path style="fill:#cdc1ff; stroke:none;" d="M88 38L88 42C88.7102 40.2405 88.7102 39.7595 88 38z"/>
<path style="fill:#0000ff; stroke:none;" d="M89 38L90 39L89 38z"/>
<path style="fill:#0000f0; stroke:none;" d="M93 38L94 39L93 38z"/>
<path style="fill:#bfc8ff; stroke:none;" d="M96 38L97 39L96 38z"/>
<path style="fill:#f9fff8; stroke:none;" d="M97 38C98.2484 38.6848 98.5484 38.7488 100 39C98.7517 38.3152 98.4516 38.2512 97 38z"/>
<path style="fill:#0f00f2; stroke:none;" d="M100 38L100 42C100.71 40.2405 100.71 39.7595 100 38z"/>
<path style="fill:#6962ff; stroke:none;" d="M102 38C102.307 40.1228 102.382 40.686 104 42C103.489 40.0478 103.267 39.543 102 38z"/>
<path style="fill:#0000fc; stroke:none;" d="M103 38L104 39L103 38z"/>
<path style="fill:#6351ff; stroke:none;" d="M108 38L108 42C108.71 40.2405 108.71 39.7595 108 38z"/>
<path style="fill:#301de8; stroke:none;" d="M110 38L110 41C110.696 39.4463 110.696 39.5537 110 38z"/>
<path style="fill:#a4abff; stroke:none;" d="M111 38L112 39L111 38z"/>
<path style="fill:#fdfffb; stroke:none;" d="M111 41C113.739 40.7893 114.422 40.6975 115 38C112.703 38.6735 112.226 38.9653 111 41z"/>
<path style="fill:#0700f8; stroke:none;" d="M118 38L119 39L118 38z"/>
<path style="fill:#fffcfa; stroke:none;" d="M119 38L119 41L123 41L123 38L119 38z"/>
<path style="fill:#0e00ff; stroke:none;" d="M123 38L124 39L123 38z"/>
<path style="fill:#b4b9fe; stroke:none;" d="M124 38L125 39L124 38z"/>
<path style="fill:#ffffff; stroke:none;" d="M132 41C134.132 40.2235 134.771 39.8698 136 38C133.261 38.2107 132.578 38.3025 132 41z"/>
<path style="fill:#8687ff; stroke:none;" d="M136 38L134 41C136.39 41.0123 137.117 40.3129 136 38z"/>
<path style="fill:#1d16ff; stroke:none;" d="M137 38L137 42C137.71 40.2405 137.71 39.7595 137 38z"/>
<path style="fill:#ffffff; stroke:none;" d="M138 38C139.248 38.6848 139.548 38.7488 141 39C139.752 38.3152 139.452 38.2512 138 38z"/>
<path style="fill:#5c56ff; stroke:none;" d="M138 39C139.769 39.7789 141.036 39.9124 143 40C141.098 38.844 140.278 38.8435 138 39z"/>
<path style="fill:#0000eb; stroke:none;" d="M142 38L143 39L142 38z"/>
<path style="fill:#2a18ec; stroke:none;" d="M144 38L144 41C144.696 39.4463 144.696 39.5537 144 38z"/>
<path style="fill:#6065e0; stroke:none;" d="M145 38L146 39L145 38z"/>
<path style="fill:#ffffff; stroke:none;" d="M145 41L151 40C148.318 38.2587 146.792 38.3051 145 41z"/>
<path style="fill:#0000ff; stroke:none;" d="M152 38L153 39L152 38z"/>
<path style="fill:#706cff; stroke:none;" d="M156 38L157 39L156 38z"/>
<path style="fill:#463af7; stroke:none;" d="M157 38L157 42C157.71 40.2405 157.71 39.7595 157 38z"/>
<path style="fill:#3e29ff; stroke:none;" d="M159 38L159 41C159.696 39.4463 159.696 39.5537 159 38z"/>
<path style="fill:#6972f5; stroke:none;" d="M160 38L161 39L160 38z"/>
<path style="fill:#ffffff; stroke:none;" d="M160 41C162.739 40.7893 163.422 40.6975 164 38C161.703 38.6735 161.226 38.9653 160 41z"/>
<path style="fill:#8177ef; stroke:none;" d="M165 38L166 39L165 38z"/>
<path style="fill:#ffffff; stroke:none;" d="M170 39C172.01 40.474 172.522 40.4645 175 40C172.99 38.526 172.478 38.5355 170 39z"/>
<path style="fill:#1606f7; stroke:none;" d="M177 38L178 39L177 38z"/>
<path style="fill:#8b99f0; stroke:none;" d="M178 38L179 39L178 38z"/>
<path style="fill:#ffffff; stroke:none;" d="M178 41C180.739 40.7893 181.422 40.6975 182 38C179.703 38.6735 179.226 38.9653 178 41z"/>
<path style="fill:#5762f4; stroke:none;" d="M183 38L182 43C183.879 41.3768 183.916 40.3004 183 38z"/>
<path style="fill:#3b2bff; stroke:none;" d="M185 38L185 42C185.71 40.2405 185.71 39.7595 185 38z"/>
<path style="fill:#5f5cf5; stroke:none;" d="M188 38L188 42L192 40C190.623 39.0886 189.56 38.5962 188 38z"/>
<path style="fill:#ffffff; stroke:none;" d="M189 38C190.248 38.6848 190.548 38.7488 192 39C190.752 38.3152 190.452 38.2512 189 38z"/>
<path style="fill:#1619f7; stroke:none;" d="M192 38L192 42C192.71 40.2405 192.71 39.7595 192 38z"/>
<path style="fill:#8c90ea; stroke:none;" d="M193 38L193 42C193.71 40.2405 193.71 39.7595 193 38z"/>
<path style="fill:#ddeaf0; stroke:none;" d="M9.33333 39.6667C9.27778 39.7222 9.22222 40.7778 9.66667 40.3333C9.72222 40.2778 9.77778 39.2222 9.33333 39.6667z"/>
<path style="fill:#c7cdff; stroke:none;" d="M12.3333 39.6667C12.2778 39.7222 12.2222 40.7778 12.6667 40.3333C12.7222 40.2778 12.7778 39.2222 12.3333 39.6667z"/>
<path style="fill:#7d76ff; stroke:none;" d="M17.3333 39.6667C17.2778 39.7222 17.2222 40.7778 17.6667 40.3333C17.7222 40.2778 17.7778 39.2222 17.3333 39.6667z"/>
<path style="fill:#bbbdff; stroke:none;" d="M34 39L35 40L34 39z"/>
<path style="fill:#2417ff; stroke:none;" d="M60 39L60 42C60.6961 40.4463 60.6961 40.5537 60 39z"/>
<path style="fill:#d5e2ed; stroke:none;" d="M79 39C79.0313 40.8318 78.9205 40.5587 80 42C79.7488 40.5484 79.6848 40.2483 79 39z"/>
<path style="fill:#b5a9f9; stroke:none;" d="M80.3333 39.6667C80.2778 39.7222 80.2222 40.7778 80.6667 40.3333C80.7222 40.2778 80.7778 39.2222 80.3333 39.6667z"/>
<path style="fill:#2620ff; stroke:none;" d="M81 39L81 42C81.6961 40.4463 81.6961 40.5537 81 39z"/>
<path style="fill:#381fff; stroke:none;" d="M89 39L89 42C89.6961 40.4463 89.6961 40.5537 89 39z"/>
<path style="fill:#bfbff9; stroke:none;" d="M93 39L94 40L93 39z"/>
<path style="fill:#5855f6; stroke:none;" d="M96 39C97.5061 39.683 98.3148 39.8259 100 40C98.494 39.317 97.6852 39.1741 96 39z"/>
<path style="fill:#7c74ff; stroke:none;" d="M107 39L107 42C107.696 40.4463 107.696 40.5537 107 39z"/>
<path style="fill:#8993ff; stroke:none;" d="M115 39L116 42C116.685 40.7517 116.749 40.4516 117 39L115 39z"/>
<path style="fill:#4035ff; stroke:none;" d="M118 39C118.406 41.0924 118.217 41.0198 120 42C119.309 40.6116 119.015 40.1394 118 39z"/>
<path style="fill:#6d66f7; stroke:none;" d="M123 39C123.545 40.6352 123.365 40.4549 125 41L125 39L123 39z"/>
<path style="fill:#605af6; stroke:none;" d="M151.667 39.3333C151.222 39.7778 152.278 39.7222 152.333 39.6667C152.778 39.2222 151.722 39.2778 151.667 39.3333z"/>
<path style="fill:#abadff; stroke:none;" d="M156 39L156 42C156.696 40.4463 156.696 40.5537 156 39z"/>
<path style="fill:#7672ff; stroke:none;" d="M164.333 39.6667C164.278 39.7223 164.222 40.7778 164.667 40.3333C164.722 40.2778 164.778 39.2222 164.333 39.6667z"/>
<path style="fill:#4d46f9; stroke:none;" d="M165.333 39.6667C165.278 39.7223 165.222 40.7778 165.667 40.3333C165.722 40.2778 165.778 39.2222 165.333 39.6667z"/>
<path style="fill:#5137ff; stroke:none;" d="M177 39L178 40L177 39z"/>
<path style="fill:#5954ff; stroke:none;" d="M4 40L5 41L4 40z"/>
<path style="fill:#6660f8; stroke:none;" d="M29 40L30 41L29 40z"/>
<path style="fill:#4b4ef6; stroke:none;" d="M71 40L72 41L71 40z"/>
<path style="fill:#c3ceec; stroke:none;" d="M74 40L75 41L74 40z"/>
<path style="fill:#fffff6; stroke:none;" d="M75 40C76.2484 40.6848 76.5484 40.7488 78 41C76.7517 40.3152 76.4516 40.2512 75 40z"/>
<path style="fill:#0a06ff; stroke:none;" d="M86 40L86 44C86.7102 42.2405 86.7102 41.7595 86 40z"/>
<path style="fill:#2e1aff; stroke:none;" d="M95.3333 40.6667C95.2778 40.7222 95.2222 41.7778 95.6667 41.3333C95.7222 41.2778 95.7778 40.2222 95.3333 40.6667z"/>
<path style="fill:#ffffff; stroke:none;" d="M96 40C97.5061 40.683 98.3148 40.8259 100 41C98.494 40.317 97.6852 40.1741 96 40z"/>
<path style="fill:#573fff; stroke:none;" d="M115 40L116 41L115 40z"/>
<path style="fill:#280eff; stroke:none;" d="M123.333 40.6667C123.278 40.7222 123.222 41.7778 123.667 41.3333C123.722 41.2778 123.778 40.2222 123.333 40.6667z"/>
<path style="fill:#fffffd; stroke:none;" d="M138 40C139.506 40.683 140.315 40.8259 142 41C140.494 40.317 139.685 40.1741 138 40z"/>
<path style="fill:#b2acff; stroke:none;" d="M142 40L143 41L142 40z"/>
<path style="fill:#8c87ff; stroke:none;" d="M149 40L150 41L149 40z"/>
<path style="fill:#dadfff; stroke:none;" d="M150.333 40.6667C150.278 40.7223 150.222 41.7778 150.667 41.3333C150.722 41.2778 150.778 40.2222 150.333 40.6667z"/>
<path style="fill:#9890ff; stroke:none;" d="M151.333 40.6667C151.278 40.7223 151.222 41.7777 151.667 41.3333C151.722 41.2778 151.778 40.2222 151.333 40.6667z"/>
<path style="fill:#4231ff; stroke:none;" d="M152.333 40.6667C152.278 40.7223 152.222 41.7778 152.667 41.3333C152.722 41.2778 152.778 40.2222 152.333 40.6667z"/>
<path style="fill:#8993ff; stroke:none;" d="M170 40L171 41L170 40z"/>
<path style="fill:#b3c0e8; stroke:none;" d="M174 40L175 41L174 40z"/>
<path style="fill:#1d04fa; stroke:none;" d="M177 40L178 41L177 40z"/>
<path style="fill:#0802f5; stroke:none;" d="M187 40L188 41L187 40z"/>
<path style="fill:#ffffff; stroke:none;" d="M189 40C190.248 40.6848 190.548 40.7488 192 41C190.752 40.3152 190.452 40.2512 189 40z"/>
<path style="fill:#8081f5; stroke:none;" d="M8 41L9 42L8 41z"/>
<path style="fill:#676aff; stroke:none;" d="M13 41L14 42L13 41z"/>
<path style="fill:#bfc4ee; stroke:none;" d="M21 41L22 42L21 41z"/>
<path style="fill:#979dfa; stroke:none;" d="M33 41L34 42L33 41z"/>
<path style="fill:#c8ceff; stroke:none;" d="M38 41L39 42L38 41z"/>
<path style="fill:#0e00ff; stroke:none;" d="M68 41L69 42L68 41z"/>
<path style="fill:#8d7df5; stroke:none;" d="M69 41L69 43L71 43L71 41L69 41z"/>
<path style="fill:#0e00f1; stroke:none;" d="M71 41L72 42L71 41z"/>
<path style="fill:#a89eff; stroke:none;" d="M73 41L74 42L73 41z"/>
<path style="fill:#2206f8; stroke:none;" d="M74 41L75 42L74 41z"/>
<path style="fill:#9289f8; stroke:none;" d="M75 41L75 43L78 43L78 41L75 41z"/>
<path style="fill:#0700ff; stroke:none;" d="M78 41L79 42L78 41z"/>
<path style="fill:#6070f7; stroke:none;" d="M82 41C83.5061 41.683 84.3148 41.8259 86 42C84.494 41.317 83.6852 41.1741 82 41z"/>
<path style="fill:#8987f1; stroke:none;" d="M96 41L96 43L100 43L100 41L96 41z"/>
<path style="fill:#685dfe; stroke:none;" d="M110 41L111 42L110 41z"/>
<path style="fill:#290efd; stroke:none;" d="M111 41L112 42L111 41z"/>
<path style="fill:#8782ff; stroke:none;" d="M112 41L112 43L115 43L115 41L112 41z"/>
<path style="fill:#0000f5; stroke:none;" d="M115 41L116 42L115 41z"/>
<path style="fill:#8e83f9; stroke:none;" d="M119 42C121.046 42.7511 121.596 42.6556 123 41L119 42z"/>
<path style="fill:#857fe2; stroke:none;" d="M133 41L132 43L134 43C134 41.1468 134.3 41.6499 133 41z"/>
<path style="fill:#1600ff; stroke:none;" d="M134 41L135 42L134 41z"/>
<path style="fill:#8c83fe; stroke:none;" d="M138 41C139.314 42.6179 139.877 42.6933 142 43C140.457 41.7333 139.952 41.5108 138 41z"/>
<path style="fill:#4426ff; stroke:none;" d="M141.667 41.3333C141.222 41.7778 142.278 41.7222 142.333 41.6667C142.778 41.2222 141.722 41.2778 141.667 41.3333z"/>
<path style="fill:#8181ff; stroke:none;" d="M144 41L145 42L144 41z"/>
<path style="fill:#0d00f3; stroke:none;" d="M145 41L146 42L145 41z"/>
<path style="fill:#8e86f9; stroke:none;" d="M146 41L146 43L149 43L149 41L146 41z"/>
<path style="fill:#0000ff; stroke:none;" d="M149 41L150 42L149 41z"/>
<path style="fill:#897cff; stroke:none;" d="M159 41L160 42L159 41z"/>
<path style="fill:#1903eb; stroke:none;" d="M160 41L161 42L160 41z"/>
<path style="fill:#8c88e9; stroke:none;" d="M161 41L161 43L164 43L164 41L161 41z"/>
<path style="fill:#1600ff; stroke:none;" d="M164 41L165 42L164 41z"/>
<path style="fill:#a39fff; stroke:none;" d="M169 41L170 42L169 41z"/>
<path style="fill:#0c00ff; stroke:none;" d="M170 41L171 42L170 41z"/>
<path style="fill:#8979ff; stroke:none;" d="M171 41L171 43L174 43L174 41L171 41z"/>
<path style="fill:#1800f0; stroke:none;" d="M174 41L175 42L174 41z"/>
<path style="fill:#8790ff; stroke:none;" d="M175 41L176 42L175 41z"/>
<path style="fill:#7f84ff; stroke:none;" d="M177 41L178 42L177 41z"/>
<path style="fill:#2a33f7; stroke:none;" d="M178 41L179 42L178 41z"/>
<path style="fill:#7372fa; stroke:none;" d="M179 41C180.248 41.6848 180.548 41.7488 182 42C180.752 41.3152 180.452 41.2512 179 41z"/>
<path style="fill:#0000e8; stroke:none;" d="M182 41L183 42L182 41z"/>
<path style="fill:#7c80f2; stroke:none;" d="M187 41L188 42L187 41z"/>
<path style="fill:#868bff; stroke:none;" d="M188 42C190.046 42.7511 190.596 42.6556 192 41L188 42z"/>
<path style="fill:#cfd4ef; stroke:none;" d="M14.6667 42.3333C14.2222 42.7778 15.2778 42.7222 15.3333 42.6667C15.7778 42.2222 14.7222 42.2778 14.6667 42.3333z"/>
<path style="fill:#cdd5d9; stroke:none;" d="M74 42L75 43L74 42z"/>
<path style="fill:#d8e1ff; stroke:none;" d="M81 42C82.5431 43.2667 83.0478 43.4892 85 44C83.542 42.9189 82.752 42.5639 81 42z"/>
<path style="fill:#b5b4f9; stroke:none;" d="M83.6667 42.3333C83.2222 42.7778 84.2778 42.7222 84.3333 42.6667C84.7778 42.2222 83.7222 42.2778 83.6667 42.3333z"/>
<path style="fill:#ffffff; stroke:none;" d="M85 42L86 43L85 42z"/>
<path style="fill:#bfb7ff; stroke:none;" d="M111 42L112 43L111 42z"/>
<path style="fill:#c0bbff; stroke:none;" d="M134 42L135 43L134 42z"/>
<path style="fill:#dbe4fe; stroke:none;" d="M156.667 42.3333C156.222 42.7778 157.278 42.7222 157.333 42.6667C157.778 42.2222 156.722 42.2778 156.667 42.3333z"/>
<path style="fill:#c3cbff; stroke:none;" d="M160 42L161 43L160 42z"/>
<path style="fill:#daeaff; stroke:none;" d="M177.667 42.3333C177.222 42.7778 178.278 42.7222 178.333 42.6667C178.778 42.2222 177.722 42.2778 177.667 42.3333z"/>
<path style="fill:#c0abff; stroke:none;" d="M179.667 42.3333C179.222 42.7778 180.278 42.7222 180.333 42.6667C180.778 42.2222 179.722 42.2778 179.667 42.3333z"/>
<path style="fill:#e0e5f4; stroke:none;" d="M181 42L179 43C180.482 43.7912 181.796 43.8698 181 42z"/>
<path style="fill:#0000e6; stroke:none;" d="M81 43L82 44L81 43z"/>
<path style="fill:#a19fff; stroke:none;" d="M85 43L86 44L85 43z"/>
<path style="fill:#5956f1; stroke:none;" d="M177 43C178.788 44.4215 179.706 44.6974 182 45C180.307 43.9376 178.96 43.4804 177 43z"/>
<path style="fill:#0d00fe; stroke:none;" d="M182 43L183 44L182 43z"/>
<path style="fill:#8e9df0; stroke:none;" d="M183 43L184 44L183 43z"/>
<path style="fill:#b5b6ff; stroke:none;" d="M81 44L82 45L81 44z"/>
<path style="fill:#4a3eff; stroke:none;" d="M82 44C83.5061 44.683 84.3148 44.8259 86 45C84.494 44.317 83.6852 44.1741 82 44z"/>
<path style="fill:#c1ccf9; stroke:none;" d="M86 44L87 45L86 44z"/>
<path style="fill:#8f86ff; stroke:none;" d="M182 44L183 45L182 44z"/>
</svg>
